# AST/ASF file generated using VICON BodyLanguage
# -----------------------------------------------
:version 1.10
:name VICON
:units
  mass 1.0
  length 0.45
  angle deg
:documentation
   .ast/.asf automatically generated from VICON data using
   VICON BodyBuilder and BodyLanguage model FoxedUp or BRILLIANT.MOD
:root
   order TX TY TZ RX RY RZ
   axis XYZ
   position 0 0 0  
   orientation 0 0 0 
:bonedata
  begin
     id 1 
     name lhipjoint
     direction 0.660183 -0.676772 0.325788 
     length 2.75133 
     axis 0 0 0  XYZ
  end
  begin
     id 2 
     name lfemur
     direction 0.34202 -0.939693 0  
     length 7.70317  
     axis 0 0 20  XYZ
    dof rx ry rz
    limits (-160.0 20.0)
           (-70.0 70.0)
           (-60.0 70.0)
  end
  begin
     id 3 
     name ltibia
     direction 0.342105 -0.939662 0   
     length 7.18701   
     axis 0 0 20   XYZ
    dof rx
    limits (-10.0 170.0)
  end
  begin
     id 4 
     name lfoot
     direction 0.14163 -0.389126 0.910232   
     length 2.41719   
     axis -90 7.62852e-016 20   XYZ
    dof rx rz
    limits (-45.0 90.0)
           (-70.0 20.0)
  end
  begin
     id 5 
     name ltoes
     direction 1.53533e-011 -4.21926e-011 1   
     length 1.18611   
     axis -90 7.62852e-016 20   XYZ
    dof rx
    limits (-90.0 20.0)
  end
  begin
     id 6 
     name rhipjoint
     direction -0.6658 -0.67229 0.323631   
     length 2.76968  
     axis 0 0 0  XYZ 
  end
  begin
     id 7 
     name rfemur
     direction -0.34202 -0.939693 0   
     length 7.92547   
     axis 0 0 -20   XYZ
    dof rx ry rz
    limits (-160.0 20.0)
           (-70.0 70.0)
           (-70.0 60.0)
  end
  begin
     id 8 
     name rtibia
     direction -0.342022 -0.939692 0   
     length 7.22641   
     axis 0 0 -20   XYZ
    dof rx
    limits (-10.0 170.0)
 end
 begin
     id 9 
     name rfoot
     direction -0.105675 -0.29034 0.951071   
     length 2.48149  
     axis -90 -7.62852e-016 -20   XYZ
    dof rx rz
    limits (-45.0 90.0)
           (-20.0 70.0)
  end
  begin
     id 10 
     name rtoes
     direction -1.5349e-011 -4.21859e-011 1   
     length 1.23343   
     axis -90 -7.62852e-016 -20   XYZ
    dof rx
    limits (-90.0 20.0)
  end
  begin
     id 11 
     name lowerback
     direction 0.0104173 0.993624 -0.112266   
     length 2.00527   
     axis 0 0 0   XYZ
    dof rx ry rz
    limits (-20.0 45.0)
           (-30.0 30.0)
           (-30.0 30.0)
  end
  begin
     id 12 
     name upperback
     direction 0.00733149 0.999856 -0.0152913   
     length 2.01385   
     axis 0 0 0   XYZ
    dof rx ry rz
    limits (-20.0 45.0)
           (-30.0 30.0)
           (-30.0 30.0)
  end
  begin
     id 13 
     name thorax
     direction 0.0026304 0.999318 0.036841   
     length 2.03734   
     axis 0 0 0   XYZ
    dof rx ry rz
    limits (-20.0 45.0)
           (-30.0 30.0)
           (-30.0 30.0)
  end
  begin
     id 14 
     name lowerneck
     direction 0.0293154 0.998757 0.0403082   
     length 1.65303   
     axis 0 0 0   XYZ
    dof rx ry rz
    limits (-20.0 45.0)
           (-30.0 30.0)
           (-30.0 30.0)
  end
  begin
     id 15 
     name upperneck
     direction -0.0376619 0.998184 -0.0470083   
     length 1.60926   
     axis 0 0 0   XYZ
    dof rx ry rz
    limits (-20.0 45.0)
           (-30.0 30.0)
           (-30.0 30.0)
  end
  begin
     id 16
     name head
     direction -0.0170133 0.999635 -0.0209778  
     length 1.73625  
     axis 0 0 0   XYZ
    dof rx ry rz
    limits (-20.0 45.0)
           (-30.0 30.0)
           (-30.0 30.0)
  end
  begin
     id 17 
     name lclavicle
     direction 0.919857 0.39181 -0.0186333  
     length 3.75313  
     axis 0 0 0   XYZ
    dof ry rz
    limits (-20.0 10.0)
           (0.0 20.0)
  end
  begin
     id 18 
     name lhumerus
     direction 1 -4.48988e-011 1.44029e-027   
     length 5.49313   
     axis 180 -30 -90   XYZ
    dof rx ry rz
    limits (-60.0 90.0)
           (-90.0 90.0)
           (-90.0 90.0)
  end
  begin
     id 19
     name lradius
     direction 1 -4.48924e-011 7.46281e-027   
     length 3.29037   
     axis 180 -30 -90   XYZ
    dof rx
    limits (-10.0 170.0)
  end
  begin
     id 20
     name lwrist
     direction 1 -4.48955e-011 2.19879e-026   
     length 1.64519   
     axis -1.34358e-014 90 90   XYZ
    dof ry
    limits (-180.0 0.0)
 end
  begin
     id 21 
     name lhand
     direction 1 -4.48978e-011 4.39747e-026   
     length 0.729656   
     axis -2.80598e-014 90 90   XYZ
    dof rx rz
    limits (-90.0 90.0)
           (-45.0 45.0)
  end
  begin
     id 22 
     name lfingers
     direction 1 -4.49071e-011 8.79411e-026   
     length 0.588268   
     axis -5.61193e-014 90 90   XYZ
    dof rx
    limits (0.0 90.0)
  end
  begin
     id 23
     name lthumb
     direction 0.707107 -6.34817e-011 0.707107   
     length 0.844638   
     axis -90 45 -9.86923e-015   XYZ
    dof rx rz
    limits (-45.0 45.0)
           (-45.0 45.0)
  end
  begin
     id 24 
     name rclavicle
     direction -0.919898 0.388279 0.0550233   
     length 3.7171  
     axis 0 0 0   XYZ 
    dof ry rz
    limits (-10.0 20.0)
           (-20.0 0.0)
  end
  begin
     id 25 
     name rhumerus
     direction -1 -4.48968e-011 9.98372e-028  
     length 5.23684   
     axis 180 30 90   XYZ
    dof rx ry rz
    limits (-90.0 60.0)
           (-90.0 90.0)
           (-90.0 90.0)
  end
  begin
     id 26 
     name rradius
     direction -1 -4.48956e-011 1.01023e-026   
     length 3.38251   
     axis 180 30 90   XYZ
    dof rx
    limits (-10.0 170.0)
  end
  begin
     id 27 
     name rwrist
     direction -1 -4.4892e-011 2.19886e-026   
     length 1.69126   
     axis -1.34358e-014 -90 -90   XYZ
    dof ry
    limits (-180.0 0.0)
  end
  begin
     id 28
     name rhand
     direction -1 -4.49024e-011 4.39727e-026   
     length 0.691454   
     axis -2.80598e-014 -90 -90   XYZ
    dof rx rz
    limits (-90.0 90.0)
           (-45.0 45.0)
  end
  begin
     id 29
     name rfingers
     direction -1 -4.49097e-011 8.79388e-026   
     length 0.557468   
     axis -5.61193e-014 -90 -90   XYZ
    dof rx
    limits (0.0 90.0)
  end
  begin
     id 30
     name rthumb
     direction -0.707107 -6.34938e-011 0.707107   
     length 0.800416   
     axis -90 -45 9.86923e-015   XYZ
    dof rx rz
    limits (-45.0 45.0)
           (-45.0 45.0)
  end
:hierarchy
  begin
    root lhipjoint rhipjoint lowerback
    lhipjoint lfemur
    lfemur ltibia
    ltibia lfoot
    lfoot ltoes
    rhipjoint rfemur
    rfemur rtibia
    rtibia rfoot
    rfoot rtoes
    lowerback upperback
    upperback thorax
    thorax lowerneck lclavicle rclavicle
    lowerneck upperneck
    upperneck head
    lclavicle lhumerus
    lhumerus lradius
    lradius lwrist
    lwrist lhand lthumb
    lhand lfingers
    rclavicle rhumerus
    rhumerus rradius
    rradius rwrist
    rwrist rhand rthumb
    rhand rfingers
  end

#!OML:ASF H:\BabyWalks\Project 1\Capture day 1\Session 1\baby.ASF
:FULLY-SPECIFIED
:DEGREES
1
root -30.6583 17.5891 -2.27458 -61.6582 85.1451 -61.4857
lowerback 13.8266 -1.49305 -0.145726
upperback 5.29219 -1.63128 2.86667
thorax -2.08421 -0.727314 3.32418
lowerneck -3.43077 1.90036 -1.174
upperneck -7.62458 2.5977 -1.9121
head -1.77868 1.42284 -0.414856
rclavicle 2.59911e-014 -1.72943e-014
rhumerus -43.4047 14.6141 -80.4757
rradius 53.3874
rwrist 3.27391
rhand -6.49634 -12.1535
rfingers 7.12502
rthumb 19.3552 -41.2103
lclavicle 2.59911e-014 -1.72943e-014
lhumerus -44.0195 3.52215 80.2216
lradius 52.2227
lwrist 1.4212
lhand 1.17539 9.78948
lfingers 7.12502
lthumb 26.7157 37.9236
rfemur -6.51547 5.73929 21.1678
rtibia 24.8269
rfoot -15.5283 -14.1471
rtoes -11.6727
lfemur -9.31994 -0.631672 -9.19493
ltibia 31.5443
lfoot -21.5747 5.69005
ltoes -1.57809
2
root -30.6578 17.5857 -2.27655 -60.2533 85.1916 -60.0876
lowerback 13.7872 -1.45282 -0.268064
upperback 5.3096 -1.59666 2.8416
thorax -2.04385 -0.711959 3.36038
lowerneck -3.38318 1.874 -1.08385
upperneck -7.6657 2.55563 -1.98576
head -1.7982 1.40154 -0.45357
rclavicle -1.48095e-014 -2.18663e-014
rhumerus -43.3524 14.5874 -80.4721
rradius 53.4031
rwrist 3.30398
rhand -6.52538 -12.1788
rfingers 7.12502
rthumb 19.3272 -41.2384
lclavicle -1.48095e-014 -2.18663e-014
lhumerus -43.9129 3.49245 80.2522
lradius 52.1971
lwrist 1.37977
lhand 1.15783 9.80289
lfingers 7.12502
lthumb 26.6989 37.9396
rfemur -6.63568 5.71504 21.0427
rtibia 25.0191
rfoot -15.6533 -14.0015
rtoes -11.6823
lfemur -9.26226 -1.22923 -9.3884
ltibia 31.523
lfoot -21.6225 6.3626
ltoes -1.48673
3
root -30.6574 17.5822 -2.27702 -59.8826 85.1285 -59.7197
lowerback 13.7635 -1.42998 -0.267795
upperback 5.32755 -1.56606 2.8556
thorax -2.01373 -0.697018 3.3693
lowerneck -3.3408 1.85657 -0.999099
upperneck -7.70504 2.52657 -2.04482
head -1.81655 1.38659 -0.486875
rclavicle -1.15792e-014 1.25234e-014
rhumerus -43.331 14.5527 -80.4756
rradius 53.4423
rwrist 3.2972
rhand -6.56031 -12.1397
rfingers 7.12502
rthumb 19.2937 -41.2026
lclavicle -1.15792e-014 1.25234e-014
lhumerus -43.8139 3.41699 80.2878
lradius 52.1791
lwrist 1.38789
lhand 1.08303 10.1189
lfingers 7.12502
lthumb 26.6273 38.2664
rfemur -6.64059 5.74382 21.0853
rtibia 25.0027
rfoot -15.1749 -14.2358
rtoes -14.4064
lfemur -9.28556 -1.11264 -9.35163
ltibia 31.5187
lfoot -21.5695 6.42476
ltoes -1.90692
4
root -30.6552 17.5885 -2.27824 -59.2177 85.1046 -59.0456
lowerback 13.7398 -1.40905 -0.308403
upperback 5.35126 -1.54378 2.85852
thorax -1.97612 -0.686692 3.39091
lowerneck -3.31977 1.86745 -1.00469
upperneck -7.72178 2.54202 -2.01887
head -1.82589 1.39424 -0.478432
rclavicle -6.36111e-015 -1.98785e-015
rhumerus -43.275 14.5032 -80.4587
rradius 53.4514
rwrist 3.32896
rhand -6.48679 -12.1118
rfingers 7.12502
rthumb 19.3643 -41.1676
lclavicle -6.36111e-015 -1.98785e-015
lhumerus -43.7065 3.36748 80.3227
lradius 52.1347
lwrist 1.36138
lhand 1.02166 10.3331
lfingers 7.12502
lthumb 26.5686 38.4895
rfemur -6.64305 5.73814 21.0694
rtibia 25.0245
rfoot -15.2016 -14.1321
rtoes -14.5125
lfemur -9.23866 -0.507346 -9.28801
ltibia 31.5153
lfoot -21.7554 5.7713
ltoes -1.14475
5
root -30.6537 17.5865 -2.27819 -58.9239 85.0688 -58.7543
lowerback 13.7143 -1.39458 -0.322006
upperback 5.3651 -1.52666 2.86297
thorax -1.94843 -0.678639 3.39974
lowerneck -3.30182 1.84603 -0.92701
upperneck -7.72021 2.5086 -2.07046
head -1.82707 1.37632 -0.507431
rclavicle 1.26725e-014 1.61016e-014
rhumerus -43.2664 14.4913 -80.4802
rradius 53.4881
rwrist 3.31514
rhand -6.48124 -12.0918
rfingers 7.12502
rthumb 19.3697 -41.1471
lclavicle 1.26725e-014 1.61016e-014
lhumerus -43.6527 3.28978 80.344
lradius 52.1816
lwrist 1.34013
lhand 1.03216 10.0696
lfingers 7.12502
lthumb 26.5786 38.2246
rfemur -6.64262 5.73555 21.0894
rtibia 25.0063
rfoot -15.2491 -14.0556
rtoes -13.8472
lfemur -9.20949 -0.852508 -9.30602
ltibia 31.5172
lfoot -21.6581 6.15718
ltoes -1.41921
6
root -30.6523 17.5868 -2.27874 -58.4767 85.0375 -58.3079
lowerback 13.6927 -1.37733 -0.344328
upperback 5.38141 -1.50694 2.86562
thorax -1.92017 -0.669363 3.41132
lowerneck -3.281 1.83468 -0.876276
upperneck -7.73168 2.49047 -2.09757
head -1.83354 1.36658 -0.524622
rclavicle 1.38155e-014 3.40916e-014
rhumerus -43.2445 14.4715 -80.4914
rradius 53.5214
rwrist 3.31422
rhand -6.46839 -12.0721
rfingers 7.12502
rthumb 19.382 -41.1261
lclavicle 1.38155e-014 3.40916e-014
lhumerus -43.5737 3.21605 80.3715
lradius 52.1949
lwrist 1.33443
lhand 1.00187 9.97909
lfingers 7.12502
lthumb 26.5496 38.1384
rfemur -6.63169 5.73374 21.0936
rtibia 24.9669
rfoot -15.2306 -14.0022
rtoes -13.8028
lfemur -9.19326 -0.806363 -9.29737
ltibia 31.5228
lfoot -21.6759 6.15429
ltoes -1.37666
7
root -30.6509 17.5873 -2.27914 -58.1212 85.0032 -57.9536
lowerback 13.6753 -1.36331 -0.357693
upperback 5.39638 -1.49017 2.86877
thorax -1.89567 -0.661399 3.41895
lowerneck -3.26541 1.82386 -0.831014
upperneck -7.73975 2.47362 -2.11863
head -1.83815 1.35744 -0.538922
rclavicle -1.21259e-014 -3.97569e-016
rhumerus -43.2307 14.4574 -80.5082
rradius 53.5602
rwrist 3.3097
rhand -6.45761 -12.0538
rfingers 7.12502
rthumb 19.3924 -41.1068
lclavicle -1.21259e-014 -3.97569e-016
lhumerus -43.4989 3.13336 80.3976
lradius 52.2205
lwrist 1.34168
lhand 0.981096 9.87137
lfingers 7.12502
lthumb 26.5298 38.0337
rfemur -6.63628 5.7315 21.1055
rtibia 24.9651
rfoot -15.2495 -13.9524
rtoes -13.6851
lfemur -9.18082 -0.734752 -9.27773
ltibia 31.5288
lfoot -21.6906 6.12145
ltoes -1.35788
8
root -30.6496 17.5879 -2.27945 -57.821 84.9701 -57.6561
lowerback 13.6606 -1.35226 -0.365363
upperback 5.40934 -1.47662 2.8706
thorax -1.87474 -0.65493 3.42257
lowerneck -3.24887 1.81246 -0.79355
upperneck -7.7492 2.45655 -2.13136
head -1.84359 1.34827 -0.549361
rclavicle 1.74434e-014 -3.3197e-014
rhumerus -43.2254 14.4499 -80.531
rradius 53.6051
rwrist 3.30018
rhand -6.44799 -12.0407
rfingers 7.12502
rthumb 19.4017 -41.0927
lclavicle 1.74434e-014 -3.3197e-014
lhumerus -43.429 3.04372 80.4208
lradius 52.2594
lwrist 1.36227
lhand 0.979409 9.76304
lfingers 7.12502
lthumb 26.5281 37.9256
rfemur -6.63484 5.72662 21.1191
rtibia 24.9484
rfoot -15.2958 -13.887
rtoes -13.3589
lfemur -9.16924 -0.683618 -9.25801
ltibia 31.5329
lfoot -21.7068 6.1034
ltoes -1.35744
9
root -30.6483 17.5881 -2.27962 -57.561 84.9381 -57.4005
lowerback 13.6508 -1.34368 -0.367932
upperback 5.41907 -1.46572 2.87034
thorax -1.85991 -0.649663 3.4217
lowerneck -3.23142 1.79999 -0.760154
upperneck -7.76002 2.43838 -2.13896
head -1.84975 1.33858 -0.557544
rclavicle -1.65488e-014 4.82053e-014
rhumerus -43.2312 14.4496 -80.5611
rradius 53.6551
rwrist 3.28841
rhand -6.44729 -12.0314
rfingers 7.12502
rthumb 19.4023 -41.0834
lclavicle -1.65488e-014 4.82053e-014
lhumerus -43.3664 2.94535 80.4407
lradius 52.3104
lwrist 1.39345
lhand 0.985662 9.67597
lfingers 7.12502
lthumb 26.5341 37.8376
rfemur -6.63501 5.72197 21.1338
rtibia 24.9326
rfoot -15.344 -13.8272
rtoes -13.0385
lfemur -9.16149 -0.673541 -9.24221
ltibia 31.5391
lfoot -21.7168 6.13021
ltoes -1.41562
10
root -30.6471 17.5884 -2.27963 -57.3518 84.9086 -57.1974
lowerback 13.6504 -1.33961 -0.362685
upperback 5.42233 -1.45989 2.86593
thorax -1.85692 -0.646719 3.41316
lowerneck -3.20991 1.78845 -0.733083
upperneck -7.7715 2.42183 -2.13877
head -1.85699 1.32971 -0.562312
rclavicle -1.63003e-014 2.127e-014
rhumerus -43.252 14.4562 -80.6021
rradius 53.7097
rwrist 3.27201
rhand -6.45048 -12.0253
rfingers 7.12502
rthumb 19.3993 -41.0776
lclavicle -1.63003e-014 2.127e-014
lhumerus -43.3169 2.84048 80.4528
lradius 52.3721
lwrist 1.4357
lhand 0.990614 9.59779
lfingers 7.12502
lthumb 26.5389 37.7587
rfemur -6.63848 5.71637 21.149
rtibia 24.9213
rfoot -15.3761 -13.781
rtoes -12.8618
lfemur -9.15847 -0.667049 -9.226
ltibia 31.5467
lfoot -21.7282 6.15984
ltoes -1.48494
11
root -30.646 17.5884 -2.27954 -57.1548 84.8805 -57.0087
lowerback 13.6699 -1.3419 -0.345831
upperback 5.41206 -1.46123 2.85397
thorax -1.87894 -0.646997 3.39196
lowerneck -3.18865 1.78063 -0.715082
upperneck -7.77247 2.41108 -2.12424
head -1.86101 1.32346 -0.560999
rclavicle -8.74653e-015 5.56597e-015
rhumerus -43.2968 14.4757 -80.662
rradius 53.7688
rwrist 3.25262
rhand -6.45636 -12.027
rfingers 7.12502
rthumb 19.3936 -41.0799
lclavicle -8.74653e-015 5.56597e-015
lhumerus -43.2925 2.7354 80.4486
lradius 52.4473
lwrist 1.48501
lhand 1.00713 9.55612
lfingers 7.12502
lthumb 26.5547 37.7147
rfemur -6.6464 5.71282 21.1635
rtibia 24.9158
rfoot -15.4038 -13.7376
rtoes -12.7029
lfemur -9.15589 -0.703605 -9.21464
ltibia 31.5547
lfoot -21.7315 6.23345
ltoes -1.57799
12
root -30.6448 17.5882 -2.27918 -56.9819 84.856 -56.846
lowerback 13.7035 -1.34884 -0.323402
upperback 5.39085 -1.46823 2.83634
thorax -1.91999 -0.649898 3.36309
lowerneck -3.16417 1.77491 -0.702161
upperneck -7.76749 2.40351 -2.1011
head -1.8638 1.31863 -0.556135
rclavicle -3.57812e-015 5.46658e-015
rhumerus -43.3608 14.5017 -80.7351
rradius 53.8278
rwrist 3.2319
rhand -6.46447 -12.0322
rfingers 7.12502
rthumb 19.3858 -41.0858
lclavicle -3.57812e-015 5.46658e-015
lhumerus -43.2904 2.63004 80.4313
lradius 52.5324
lwrist 1.53407
lhand 1.03061 9.54911
lfingers 7.12502
lthumb 26.5771 37.7043
rfemur -6.65833 5.71283 21.1769
rtibia 24.915
rfoot -15.4032 -13.7124
rtoes -12.698
lfemur -9.15464 -0.779075 -9.2091
ltibia 31.562
lfoot -21.7236 6.34757
ltoes -1.6956
